<?xml version="1.0" standalone="no"?>
<!DOCTYPE svg PUBLIC "-//W3C//DTD SVG 20010904//EN"
 "http://www.w3.org/TR/2001/REC-SVG-20010904/DTD/svg10.dtd">
<svg version="1.0" xmlns="http://www.w3.org/2000/svg"
 width="410.000000pt" height="297.000000pt" viewBox="0 0 410.000000 297.000000"
 preserveAspectRatio="xMidYMid meet">

<g transform="translate(0.000000,297.000000) scale(0.100000,-0.100000)"
fill="#000000" stroke="none">
<path d="M1825 2426 c-114 -27 -229 -91 -310 -175 l-39 -41 334 -335 c375
-376 357 -346 239 -379 -65 -19 -109 -20 -181 -5 -137 29 -246 126 -291 262
-6 15 -20 17 -102 17 l-97 0 7 -32 c45 -208 234 -388 455 -434 118 -24 251 -4
372 57 62 31 198 142 198 162 0 7 -150 160 -332 340 -318 313 -332 329 -313
343 70 53 236 57 343 9 78 -35 159 -119 193 -199 l23 -56 93 0 c51 0 93 4 93
8 0 20 -34 121 -55 163 -61 120 -201 238 -333 280 -85 27 -217 33 -297 15z"/>
<path d="M2108 1098 c-3 -39 -6 -43 -31 -46 -26 -3 -28 -6 -25 -45 3 -37 6
-42 31 -45 l27 -3 0 -105 c0 -103 1 -106 29 -135 24 -23 38 -29 74 -29 69 0
77 6 77 56 0 42 -1 44 -24 38 -41 -10 -56 18 -56 102 l0 74 40 0 40 0 0 44 c0
44 0 45 -37 48 -37 3 -38 4 -41 46 l-3 42 -49 0 -49 0 -3 -42z"/>
<path d="M603 1041 c-47 -22 -63 -45 -63 -93 0 -43 35 -78 113 -112 59 -27 65
-34 45 -54 -18 -18 -49 -15 -73 8 -18 17 -25 18 -58 8 -45 -14 -47 -31 -6 -69
41 -38 90 -51 149 -38 74 16 118 70 105 130 -8 36 -32 56 -102 84 -41 17 -59
30 -61 44 -3 17 2 21 22 21 14 0 29 -7 33 -15 7 -11 16 -12 51 -3 23 6 42 14
42 18 0 21 -55 70 -88 80 -50 13 -60 13 -109 -9z"/>
<path d="M1037 1050 c-16 -5 -35 -14 -43 -21 -11 -9 -14 -8 -14 5 0 13 -11 16
-55 16 l-55 0 0 -245 0 -245 55 0 55 0 0 80 0 81 32 -17 c22 -11 48 -15 85
-12 87 7 142 62 151 147 9 102 -23 166 -103 202 -43 20 -65 22 -108 9z m83
-110 c63 -63 11 -172 -74 -156 -64 12 -89 104 -41 151 31 31 86 34 115 5z"/>
<path d="M1439 1047 c-81 -30 -123 -80 -132 -157 -6 -51 11 -101 46 -139 41
-42 84 -61 144 -61 107 0 183 75 183 181 0 71 -25 116 -83 152 -54 34 -109 42
-158 24z m96 -93 c26 -10 48 -62 41 -100 -8 -38 -48 -74 -83 -74 -33 0 -83 51
-83 85 0 31 24 81 42 88 19 8 64 8 83 1z"/>
<path d="M1937 1048 c-26 -7 -45 -21 -62 -46 l-25 -37 0 43 0 42 -50 0 -50 0
0 -180 0 -180 50 0 50 0 1 73 c0 39 5 88 12 107 14 40 68 80 108 80 28 0 29 1
29 55 0 60 0 60 -63 43z"/>
<path d="M3136 1043 c-29 -12 -41 -13 -44 -5 -2 7 -24 12 -53 12 l-49 0 0
-245 0 -245 50 0 50 0 0 80 c0 44 3 80 8 80 4 0 16 -7 26 -15 11 -8 39 -15 62
-15 109 0 176 69 176 180 0 86 -37 142 -114 175 -46 19 -62 18 -112 -2z m79
-89 c21 -8 45 -56 45 -89 0 -32 -49 -85 -79 -85 -60 0 -99 51 -87 115 10 53
65 80 121 59z"/>
<path d="M2560 925 c0 -144 11 -184 62 -215 47 -30 118 -23 158 15 l30 29 0
-32 c0 -32 0 -32 50 -32 l50 0 0 180 0 180 -50 0 -50 0 0 -101 0 -101 -34 -34
c-37 -37 -66 -43 -90 -18 -13 12 -16 40 -16 135 l0 119 -55 0 -55 0 0 -125z"/>
</g>
</svg>
